HIERARCHY
ROOT Hip
{
	OFFSET 0 1.131 0.0052
	CHANNELS 6 Xposition Yposition Zposition Xrotation Yrotation Zrotation
	JOINT Abdomen
	{
		OFFSET 0 -0.047353 -0.05
		CHANNELS 3 Xrotation Zrotation Yrotation
		JOINT Chest
		{
			OFFSET 0 0.132153 0.007439
			CHANNELS 3 Xrotation Zrotation Yrotation
			JOINT Neck
			{
				OFFSET 0 0.3078 0.006161
				CHANNELS 3 Xrotation Zrotation Yrotation
				JOINT Head_comp
				{
					OFFSET 0 0.0884 0.013
					CHANNELS 3 Xrotation Yrotation Zrotation
					End Site
					{
						OFFSET -0 0.156 0.0624
					}
				}
			}
			JOINT Left_Collar
			{
				OFFSET 0.02282 0.250342 0.017193
				CHANNELS 2 Yrotation Zrotation
				JOINT Left_Shoulder
				{
					OFFSET 0.15421 0 0
					CHANNELS 3 Xrotation Yrotation Zrotation
					JOINT Left_Forearm
					{
						OFFSET 0.265212 0 0
						CHANNELS 2 Yrotation Xrotation
						JOINT Left_Hand
						{
							OFFSET 0.27571 0 0
							CHANNELS 2 Zrotation Yrotation
							JOINT L1ProxPhalanx
							{
								OFFSET 0.014142 0.001733 0.014142
								CHANNELS 3 Yrotation Zrotation Xrotation
								JOINT L1MidPhalanx
								{
									OFFSET 0.04 0 0
									CHANNELS 1 Zrotation
									JOINT L1DistPhalanx
									{
										OFFSET 0.035 0 0
										CHANNELS 1 Zrotation
										End Site
										{
											OFFSET 0.029 -0 -0
										}
									}
								}
							}
							JOINT L2ProxPhalanx
							{
								OFFSET 0.0821037 0.001578 0.0219996
								CHANNELS 2 Yrotation Zrotation
								JOINT L2MidPhalanx
								{
									OFFSET 0.04 0 0
									CHANNELS 1 Zrotation
									JOINT L2DistPhalanx
									{
										OFFSET 0.028 0 0
										CHANNELS 1 Zrotation
										End Site
										{
											OFFSET 0.02 -0 -0
										}
									}
								}
							}
							JOINT L3ProxPhalanx
							{
								OFFSET 0.083 0 0
								CHANNELS 2 Yrotation Zrotation
								JOINT L3MidPhalanx
								{
									OFFSET 0.053 0 0
									CHANNELS 1 Zrotation
									JOINT L3DistPhalanx
									{
										OFFSET 0.03 0 0
										CHANNELS 1 Zrotation
										End Site
										{
											OFFSET 0.023 -0 -0
										}
									}
								}
							}
							JOINT L4ProxPhalanx
							{
								OFFSET 0.077274 -0.000761 -0.0207055
								CHANNELS 2 Yrotation Zrotation
								JOINT L4MidPhalanx
								{
									OFFSET 0.05 0 0
									CHANNELS 1 Zrotation
									JOINT L4DistPhalanx
									{
										OFFSET 0.03 0 0
										CHANNELS 1 Zrotation
										End Site
										{
											OFFSET 0.023 -0 -0
										}
									}
								}
							}
							JOINT L5ProxPhalanx
							{
								OFFSET 0.0675499 -0.001644 -0.039
								CHANNELS 2 Yrotation Zrotation
								JOINT L5MidPhalanx
								{
									OFFSET 0.04 0 0
									CHANNELS 1 Zrotation
									JOINT L5DistPhalanx
									{
										OFFSET 0.021 0 0
										CHANNELS 1 Zrotation
										End Site
										{
											OFFSET 0.022 -0 -0
										}
									}
								}
							}
						}
					}
				}
			}
			JOINT Right_Collar
			{
				OFFSET -0.02282 0.250342 0.017193
				CHANNELS 2 Yrotation Zrotation
				JOINT Right_Shoulder
				{
					OFFSET -0.15421 0 0
					CHANNELS 3 Xrotation Yrotation Zrotation
					JOINT Right_Forearm
					{
						OFFSET -0.265212 0 0
						CHANNELS 2 Yrotation Xrotation
						JOINT Right_Hand
						{
							OFFSET -0.27571 3e-006 0
							CHANNELS 2 Zrotation Yrotation
							JOINT R1ProxPhalanx
							{
								OFFSET -0.014142 0.001733 0.014142
								CHANNELS 3 Yrotation Zrotation Xrotation
								JOINT R1MidPhalanx
								{
									OFFSET -0.04 0 0
									CHANNELS 1 Zrotation
									JOINT R1DistPhalanx
									{
										OFFSET -0.035 0 0
										CHANNELS 1 Zrotation
										End Site
										{
											OFFSET -0.029 -0 -0
										}
									}
								}
							}
							JOINT R2ProxPhalanx
							{
								OFFSET -0.0821037 0.001578 0.0219996
								CHANNELS 2 Yrotation Zrotation
								JOINT R2MidPhalanx
								{
									OFFSET -0.04 0 0
									CHANNELS 1 Zrotation
									JOINT R2DistPhalanx
									{
										OFFSET -0.028 0 0
										CHANNELS 1 Zrotation
										End Site
										{
											OFFSET -0.02 -0 -0
										}
									}
								}
							}
							JOINT R3ProxPhalanx
							{
								OFFSET -0.083 0 0
								CHANNELS 2 Yrotation Zrotation
								JOINT R3MidPhalanx
								{
									OFFSET -0.053 0 0
									CHANNELS 1 Zrotation
									JOINT R3DistPhalanx
									{
										OFFSET -0.03 0 0
										CHANNELS 1 Zrotation
										End Site
										{
											OFFSET -0.023 -0 -0
										}
									}
								}
							}
							JOINT R4ProxPhalanx
							{
								OFFSET -0.077274 -0.000761 -0.0207055
								CHANNELS 2 Yrotation Zrotation
								JOINT R4MidPhalanx
								{
									OFFSET -0.05 0 0
									CHANNELS 1 Zrotation
									JOINT R4DistPhalanx
									{
										OFFSET -0.03 0 0
										CHANNELS 1 Zrotation
										End Site
										{
											OFFSET -0.023 -0 -0
										}
									}
								}
							}
							JOINT R5ProxPhalanx
							{
								OFFSET -0.0675499 -0.001644 -0.039
								CHANNELS 2 Yrotation Zrotation
								JOINT R5MidPhalanx
								{
									OFFSET -0.04 0 0
									CHANNELS 1 Zrotation
									JOINT R5DistPhalanx
									{
										OFFSET -0.021 0 0
										CHANNELS 1 Zrotation
										End Site
										{
											OFFSET -0.022 -0 -0
										}
									}
								}
							}
						}
					}
				}
			}
		}
	}
	JOINT Left_Thigh
	{
		OFFSET 0.1118 -0.1612 -0.0442
		CHANNELS 3 Xrotation Zrotation Yrotation
		JOINT Left_Shin
		{
			OFFSET 0 -0.477856 0
			CHANNELS 1 Xrotation
			JOINT Left_Foot
			{
				OFFSET 0 -0.431952 0
				CHANNELS 2 Xrotation Zrotation
				JOINT Left_Toe
				{
					OFFSET 0 -0.0442 0.119
					CHANNELS 1 Xrotation
					End Site
					{
						OFFSET -0 -0 0.07
					}
				}
			}
		}
	}
	JOINT Right_Thigh
	{
		OFFSET -0.1118 -0.1612 -0.0442
		CHANNELS 3 Xrotation Zrotation Yrotation
		JOINT Right_Shin
		{
			OFFSET 0 -0.477856 0
			CHANNELS 1 Xrotation
			JOINT Right_Foot
			{
				OFFSET 0 -0.431952 0
				CHANNELS 2 Xrotation Zrotation
				JOINT Right_Toe
				{
					OFFSET 0 -0.0442 0.119
					CHANNELS 1 Xrotation
					End Site
					{
						OFFSET -0 -0 0.07
					}
				}
			}
		}
	}
}
MOTION
Frames: 13
Frame Time: 0.009975
-0.101417 -0.0600835 0.0466608 1.62455e-012 4.30274e-008 -5.10948e-006 0 0 0 0 0 0 0 0 0 0 0 0 0 0 -0 0 -0 0 0 0 0 -27.5605 -21.5864 106.421 -7.48048 -7.22872 0.359187 -7.00922 -0.766388 -1.05378 4.72541 -4.46271 -1.39298 -3.41729 8.71841 0.0688695 -13.7112 -8.22532 12.9011 1.57409 -20.5968 -30.2417 0 0 -0 0 -0 0 0 0 0 37.9386 28.008 73.698 26.2405 28.4472 13.118 18.2167 29.0248 19.6359 0 22.4358 32.6146 28.1246 -8.63175 30.7051 32.2053 23.7634 -7.83088 26.7354 35.1526 30.0193 0.471076 -0.653898 -0.00537628 0.0240216 -0.495067 0.653925 0 0.482482 -0.653897 -0.00550645 1.70755e-006 -0.482452 0.653925 0 
-0.101417 -0.0600835 0.0466608 1.62455e-012 4.30274e-008 -5.10948e-006 0 0 0 0 0 0 0 0 0 0 0 0 0 0 -0 0 -0 0 0 0 0 -27.5605 -21.5864 106.421 -7.48048 -7.22872 0.359187 -7.00922 -0.766388 -1.05378 4.72541 -4.46271 -1.39298 -3.41729 8.71841 0.0688695 -13.7112 -8.22532 12.9011 1.57409 -20.5968 -30.2417 0 0 -0 0 -0 0 0 0 0 37.9386 28.008 73.698 26.2405 28.4472 13.118 18.2167 29.0248 19.6359 0 22.4358 32.6146 28.1246 -8.63175 30.7051 32.2053 23.7634 -7.83088 26.7354 35.1526 30.0193 0.471076 -0.653898 -0.00537628 0.0240216 -0.495067 0.653925 0 0.482482 -0.653897 -0.00550645 1.70755e-006 -0.482452 0.653925 0 
-0.101406 -0.060055 0.0365469 -8.65216e-013 -1.37781e-008 -5.08409e-006 0 -0 0 0 -0 0 0 -0 0 -0.710167 0.291041 -9.06389e-006 -5.32929 -24.143 -27.2885 -25.2607 -28.0441 -82.2086 0.26864 17.3645 -3.73471 -27.6886 -21.6315 106.298 -7.61808 -7.29258 0.352484 -7.12417 -0.962557 -1.12351 4.70224 -4.60032 -1.58601 -3.49021 8.68326 -0.0918153 -13.8427 -8.2742 12.8672 1.44639 -20.6638 -30.1905 5.32929 24.143 -27.2885 25.2607 28.0441 82.2086 0.26864 -17.3645 3.73471 27.6886 21.6315 106.298 7.61808 7.29258 -0.352484 7.12417 0.962557 1.12351 -4.70224 4.60032 1.58601 3.49021 -8.68326 0.0918153 13.8427 8.2742 -12.8672 -1.44639 20.6638 30.1905 -0.165845 -0.654608 0.00189953 0.0239015 0.141933 0.654616 0 -0.154497 -0.654609 0.00176955 1.69901e-006 0.154485 0.654616 0 
-0.10135 -0.0600582 0.0356629 1.1246e-012 -1.87433e-008 -5.10963e-006 0 -0 0 0 -0 0 0 -0 0 -0.711751 0.290745 -2.30179e-010 -5.35567 -24.2642 -27.287 -24.8719 -28.8174 -82.7198 0.269749 17.4517 -3.75333 -27.5605 -21.5864 106.421 -7.48048 -7.22872 0.359187 -7.00922 -0.766388 -1.05378 4.72541 -4.46271 -1.39298 -3.41729 8.71841 0.0688695 -13.7112 -8.22532 12.9011 1.57409 -20.5968 -30.2417 5.35567 24.2642 -27.287 24.8719 28.8174 82.7198 0.269749 -17.4517 3.75333 27.5605 21.5864 106.421 7.48048 7.22872 -0.359187 7.00922 0.766388 1.05378 -4.72541 4.46271 1.39298 3.41729 -8.71841 -0.0688695 13.7112 8.22532 -12.9011 -1.57409 20.5968 30.2417 -0.221579 -0.658113 0.00254508 0.0240216 0.197543 0.658123 0 -0.210173 -0.658114 0.00241408 1.28066e-008 0.210159 0.658123 0 
-0.10135 -0.0600582 0.0356601 1.13966e-012 -1.87803e-008 -5.10963e-006 0 -0 0 0 -0 0 0 -0 0 -0.711728 0.290725 -4.45446e-015 -5.35567 -24.2642 -27.2864 -24.8675 -28.8255 -82.7205 0.269749 17.4517 -3.75333 -27.5605 -21.5864 106.421 -7.48048 -7.22872 0.359187 -7.00922 -0.766388 -1.05378 4.72541 -4.46271 -1.39298 -3.41729 8.71841 0.0688695 -13.7112 -8.22532 12.9011 1.57409 -20.5968 -30.2417 5.35567 24.2642 -27.2864 24.8675 28.8255 82.7205 0.269749 -17.4517 3.75333 27.5605 21.5864 106.421 7.48048 7.22872 -0.359187 7.00922 0.766388 1.05378 -4.72541 4.46271 1.39298 3.41729 -8.71841 -0.0688695 13.7112 8.22532 -12.9011 -1.57409 20.5968 30.2417 -0.22175 -0.658117 0.00254707 0.0240216 0.197714 0.658127 0 -0.210345 -0.658118 0.00241606 1.69047e-006 0.210329 0.658127 0 
-0.10135 -0.0600582 0.0356602 -3.62895e-012 -1.87584e-008 -5.10963e-006 0 -0 0 0 -0 0 0 -0 0 -0.711728 0.290725 -0 -5.35567 -24.2642 -27.2864 -24.8675 -28.8255 -82.7205 0.269749 17.4517 -3.75333 -27.5605 -21.5864 106.421 -7.48048 -7.22872 0.359187 -7.00922 -0.766388 -1.05378 4.72541 -4.46271 -1.39298 -3.41729 8.71841 0.0688695 -13.7112 -8.22532 12.9011 1.57409 -20.5968 -30.2417 5.35567 24.2642 -27.2864 24.8675 28.8255 82.7205 0.269749 -17.4517 3.75333 27.5605 21.5864 106.421 7.48048 7.22872 -0.359187 7.00922 0.766388 1.05378 -4.72541 4.46271 1.39298 3.41729 -8.71841 -0.0688695 13.7112 8.22532 -12.9011 -1.57409 20.5968 30.2417 -0.221748 -0.658117 0.00254704 0.0240216 0.197711 0.658127 0 -0.21034 -0.658118 0.00241601 1.70755e-006 0.210327 0.658127 0 
-0.10135 -0.0600582 0.0356602 -2.36261e-012 -1.87582e-008 -5.10963e-006 0 -0 0 0 -0 0 0 -0 0 -0.711728 0.290725 -3.88256e-019 -5.35567 -24.2642 -27.2864 -24.8675 -28.8255 -82.7205 0.269749 17.4517 -3.75333 -27.5605 -21.5864 106.421 -7.48048 -7.22872 0.359187 -7.00922 -0.766388 -1.05378 4.72541 -4.46271 -1.39298 -3.41729 8.71841 0.0688695 -13.7112 -8.22532 12.9011 1.57409 -20.5968 -30.2417 5.35567 24.2642 -27.2864 24.8675 28.8255 82.7205 0.269749 -17.4517 3.75333 27.5605 21.5864 106.421 7.48048 7.22872 -0.359187 7.00922 0.766388 1.05378 -4.72541 4.46271 1.39298 3.41729 -8.71841 -0.0688695 13.7112 8.22532 -12.9011 -1.57409 20.5968 30.2417 -0.221745 -0.658117 0.00254701 0.0240216 0.197709 0.658127 0 -0.21034 -0.658118 0.00241601 2.56132e-008 0.210324 0.658127 0 
-0.10135 -0.0600582 0.0356602 3.92335e-012 -1.87582e-008 -5.10963e-006 0 -0 0 0 -0 0 0 -0 0 -0.711728 0.290725 -3.88256e-019 -5.35567 -24.2642 -27.2864 -24.8675 -28.8255 -82.7205 0.269749 17.4517 -3.75333 -27.5605 -21.5864 106.421 -7.48048 -7.22872 0.359187 -7.00922 -0.766388 -1.05378 4.72541 -4.46271 -1.39298 -3.41729 8.71841 0.0688695 -13.7112 -8.22532 12.9011 1.57409 -20.5968 -30.2417 5.35567 24.2642 -27.2864 24.8675 28.8255 82.7205 0.269749 -17.4517 3.75333 27.5605 21.5864 106.421 7.48048 7.22872 -0.359187 7.00922 0.766388 1.05378 -4.72541 4.46271 1.39298 3.41729 -8.71841 -0.0688695 13.7112 8.22532 -12.9011 -1.57409 20.5968 30.2417 -0.221745 -0.658117 0.00254701 0.0240216 0.197709 0.658127 0 -0.21034 -0.658118 0.00241601 0 0.210326 0.658127 0 
-0.10135 -0.0600582 0.0356602 2.22515e-012 -1.87582e-008 -5.10963e-006 0 -0 0 0 -0 0 0 -0 0 -0.711728 0.290725 -3.88256e-019 -5.35567 -24.2642 -27.2864 -24.8675 -28.8255 -82.7205 0.269749 17.4517 -3.75333 -27.5605 -21.5864 106.421 -7.48048 -7.22872 0.359187 -7.00922 -0.766388 -1.05378 4.72541 -4.46271 -1.39298 -3.41729 8.71841 0.0688695 -13.7112 -8.22532 12.9011 1.57409 -20.5968 -30.2417 5.35567 24.2642 -27.2864 24.8675 28.8255 82.7205 0.269749 -17.4517 3.75333 27.5605 21.5864 106.421 7.48048 7.22872 -0.359187 7.00922 0.766388 1.05378 -4.72541 4.46271 1.39298 3.41729 -8.71841 -0.0688695 13.7112 8.22532 -12.9011 -1.57409 20.5968 30.2417 -0.221745 -0.658117 0.00254701 0.0240216 0.197709 0.658127 0 -0.21034 -0.658118 0.00241601 2.36654e-006 0.210326 0.658127 0 
-0.10135 -0.0600582 0.0356602 -1.41181e-012 -1.87582e-008 -5.10963e-006 0 -0 0 0 -0 0 0 -0 0 -0.711728 0.290725 3.88256e-019 -5.35567 -24.2642 -27.2864 -24.8675 -28.8255 -82.7205 0.269749 17.4517 -3.75333 -27.5605 -21.5864 106.421 -7.48048 -7.22872 0.359187 -7.00922 -0.766388 -1.05378 4.72541 -4.46271 -1.39298 -3.41729 8.71841 0.0688695 -13.7112 -8.22532 12.9011 1.57409 -20.5968 -30.2417 5.35567 24.2642 -27.2864 24.8675 28.8255 82.7205 0.269749 -17.4517 3.75333 27.5605 21.5864 106.421 7.48048 7.22872 -0.359187 7.00922 0.766388 1.05378 -4.72541 4.46271 1.39298 3.41729 -8.71841 -0.0688695 13.7112 8.22532 -12.9011 -1.57409 20.5968 30.2417 -0.221745 -0.658117 0.00254701 0.0240216 0.197709 0.658127 0 -0.21034 -0.658118 0.00241601 2.41484e-006 0.210324 0.658127 0 
-0.10135 -0.0600582 0.0356602 3.84778e-012 -1.87582e-008 -5.10963e-006 0 -0 0 0 -0 0 0 -0 0 -0.711728 0.290725 -0 -5.35567 -24.2642 -27.2864 -24.8675 -28.8255 -82.7205 0.269749 17.4517 -3.75333 -27.5605 -21.5864 106.421 -7.48048 -7.22872 0.359187 -7.00922 -0.766388 -1.05378 4.72541 -4.46271 -1.39298 -3.41729 8.71841 0.0688695 -13.7112 -8.22532 12.9011 1.57409 -20.5968 -30.2417 5.35567 24.2642 -27.2864 24.8675 28.8255 82.7205 0.269749 -17.4517 3.75333 27.5605 21.5864 106.421 7.48048 7.22872 -0.359187 7.00922 0.766388 1.05378 -4.72541 4.46271 1.39298 3.41729 -8.71841 -0.0688695 13.7112 8.22532 -12.9011 -1.57409 20.5968 30.2417 -0.221745 -0.658117 0.00254701 0.0240216 0.197709 0.658127 0 -0.21034 -0.658118 0.00241601 1.73565e-006 0.210324 0.658127 0 
-0.10135 -0.0600582 0.0356602 2.13387e-012 -1.87581e-008 -5.10963e-006 0 -0 0 0 -0 0 0 -0 0 -0.711728 0.290725 -0 -5.35567 -24.2642 -27.2864 -24.8675 -28.8255 -82.7205 0.269749 17.4517 -3.75333 -27.5605 -21.5864 106.421 -7.48048 -7.22872 0.359187 -7.00922 -0.766388 -1.05378 4.72541 -4.46271 -1.39298 -3.41729 8.71841 0.0688695 -13.7112 -8.22532 12.9011 1.57409 -20.5968 -30.2417 5.35567 24.2642 -27.2864 24.8675 28.8255 82.7205 0.269749 -17.4517 3.75333 27.5605 21.5864 106.421 7.48048 7.22872 -0.359187 7.00922 0.766388 1.05378 -4.72541 4.46271 1.39298 3.41729 -8.71841 -0.0688695 13.7112 8.22532 -12.9011 -1.57409 20.5968 30.2417 -0.221745 -0.658117 0.00254701 0.0240216 0.197709 0.658127 0 -0.21034 -0.658118 0.00241601 4.69576e-008 0.210326 0.658127 0 
-0.10135 -0.0600582 0.0356602 5.23657e-013 -1.87582e-008 -5.10963e-006 0 -0 0 0 -0 0 0 -0 0 -0.711728 0.290725 -0 -5.35567 -24.2642 -27.2864 -24.8675 -28.8255 -82.7205 0.269749 17.4517 -3.75333 -27.5605 -21.5864 106.421 -7.48048 -7.22872 0.359187 -7.00922 -0.766388 -1.05378 4.72541 -4.46271 -1.39298 -3.41729 8.71841 0.0688695 -13.7112 -8.22532 12.9011 1.57409 -20.5968 -30.2417 5.35567 24.2642 -27.2864 24.8675 28.8255 82.7205 0.269749 -17.4517 3.75333 27.5605 21.5864 106.421 7.48048 7.22872 -0.359187 7.00922 0.766388 1.05378 -4.72541 4.46271 1.39298 3.41729 -8.71841 -0.0688695 13.7112 8.22532 -12.9011 -1.57409 20.5968 30.2417 -0.221745 -0.658117 0.00254701 0.0240216 0.197709 0.658127 0 -0.21034 -0.658118 0.00241601 0 0.210326 0.658127 0 
